<mxfile host="app.diagrams.net" modified="2023-11-13T14:54:01.264Z" agent="Mozilla/5.0 (Windows NT 10.0; Win64; x64) AppleWebKit/537.36 (KHTML, like Gecko) Chrome/119.0.0.0 Safari/537.36" etag="HBqoRU-CylUNpPiuptyX" version="22.1.0" type="device">
  <diagram name="Trang-1" id="jmm7qGHs-2huWsmQeOXs">
    <mxGraphModel dx="880" dy="484" grid="1" gridSize="10" guides="1" tooltips="1" connect="1" arrows="1" fold="1" page="1" pageScale="1" pageWidth="827" pageHeight="1169" math="0" shadow="0">
      <root>
        <mxCell id="0" />
        <mxCell id="1" parent="0" />
        <mxCell id="9mgE3lEVOhGl_i5bMUdi-3" style="edgeStyle=orthogonalEdgeStyle;rounded=0;orthogonalLoop=1;jettySize=auto;html=1;exitX=0.5;exitY=1;exitDx=0;exitDy=0;entryX=0.5;entryY=0;entryDx=0;entryDy=0;" edge="1" parent="1" source="9mgE3lEVOhGl_i5bMUdi-1" target="9mgE3lEVOhGl_i5bMUdi-2">
          <mxGeometry relative="1" as="geometry" />
        </mxCell>
        <mxCell id="9mgE3lEVOhGl_i5bMUdi-1" value="Start" style="ellipse;whiteSpace=wrap;html=1;" vertex="1" parent="1">
          <mxGeometry x="340" width="120" height="80" as="geometry" />
        </mxCell>
        <mxCell id="9mgE3lEVOhGl_i5bMUdi-6" style="edgeStyle=orthogonalEdgeStyle;rounded=0;orthogonalLoop=1;jettySize=auto;html=1;exitX=0.5;exitY=1;exitDx=0;exitDy=0;" edge="1" parent="1" source="9mgE3lEVOhGl_i5bMUdi-2" target="9mgE3lEVOhGl_i5bMUdi-5">
          <mxGeometry relative="1" as="geometry" />
        </mxCell>
        <mxCell id="9mgE3lEVOhGl_i5bMUdi-2" value="n" style="shape=parallelogram;perimeter=parallelogramPerimeter;whiteSpace=wrap;html=1;fixedSize=1;" vertex="1" parent="1">
          <mxGeometry x="340" y="130" width="120" height="60" as="geometry" />
        </mxCell>
        <mxCell id="9mgE3lEVOhGl_i5bMUdi-4" style="edgeStyle=orthogonalEdgeStyle;rounded=0;orthogonalLoop=1;jettySize=auto;html=1;exitX=0.5;exitY=1;exitDx=0;exitDy=0;" edge="1" parent="1" source="9mgE3lEVOhGl_i5bMUdi-2" target="9mgE3lEVOhGl_i5bMUdi-2">
          <mxGeometry relative="1" as="geometry" />
        </mxCell>
        <mxCell id="9mgE3lEVOhGl_i5bMUdi-5" value="" style="rhombus;whiteSpace=wrap;html=1;" vertex="1" parent="1">
          <mxGeometry x="360" y="260" width="80" height="80" as="geometry" />
        </mxCell>
      </root>
    </mxGraphModel>
  </diagram>
</mxfile>
